<?xml version="1.0" encoding="UTF-8" standalone="no"?>
<svg
   xmlns:dc="http://purl.org/dc/elements/1.1/"
   xmlns:cc="http://creativecommons.org/ns#"
   xmlns:rdf="http://www.w3.org/1999/02/22-rdf-syntax-ns#"
   xmlns:svg="http://www.w3.org/2000/svg"
   xmlns="http://www.w3.org/2000/svg"
   id="svg12"
   version="1.1"
   style="overflow:visible"
   viewBox="-240 -201 480 397"
   height="1588px"
   width="1920px">
  <metadata
     id="metadata18">
    <rdf:RDF>
      <cc:Work
         rdf:about="">
        <dc:format>image/svg+xml</dc:format>
        <dc:type
           rdf:resource="http://purl.org/dc/dcmitype/StillImage" />
      </cc:Work>
    </rdf:RDF>
  </metadata>
  <defs
     id="defs16" />
  <rect
     id="rect2"
     fill-opacity="0"
     fill="rgb(0,0,0)"
     height="397"
     width="480"
     y="-201"
     x="-240" />
  <svg
     id="svg10"
     version="1.1"
     y="-250"
     x="-250"
     viewBox="-250 -250 500 500"
     height="500"
     width="500"
     style="overflow:visible">
    <g
       style="fill:#ffffff;stroke-linejoin:round"
       id="g8">
      <path
         style="fill:none;stroke:#ef454a;stroke-width:20;stroke-linecap:butt;stroke-linejoin:round;stroke-opacity:1"
         id="path4"
         d="m 83.497999,-144.89 c -28.8996,-16.6721 -65.786,-7.45216 -83.4828,20.8667 -17.6968,-28.3399 -54.609,-37.5625 -83.5172,-20.8667 -28.861699,16.7364 -39.337999,53.3482 -23.705399,82.8618 -33.3484,1.18923 -59.7757,28.6105 -59.7929,62.0296 0.0389,33.4105 26.4549,60.8007 59.7826,61.9934 -15.6524,29.524 -5.16891,66.1626 23.717399,82.8946 28.8996,16.6722 65.786,7.45216 83.4828,-20.8667 17.6968,28.3399 54.609,37.5625 83.5172,20.8667 C 112.3597,128.15 122.8308,91.5377 107.1965,62.0276 c 33.3501,-1.18079 59.7826,-28.595 59.8032,-62.0262 -0.0369,-33.4105 -26.4514,-60.8042 -59.7808,-61.9968 15.6494,-29.5222 5.16546,-66.1592 -23.719201,-82.8911 z" />
      <path
         style="fill:none;stroke:#ef454a;stroke-width:20;stroke-linecap:round;stroke-linejoin:round;stroke-opacity:1"
         id="path6"
         d="m -8.352001,13.588 c -13.742,6.88892 -23.5177,-4.48996 -25.6164,-10.0428 -5.68936,-15.0483 9.69082,-28.2072 23.2922,-29.6308 24.3286,-2.54598 42.4731,20.5237 42.5816,43.3259 0.16115,33.4622 -31.3048,57.3175 -63.052,55.8387 -42.313,-1.97326 -71.865099,-42.3332 -68.6973,-83.2289 3.98837,-51.461 53.0733,-86.981 102.812,-82.0449 60.2405,5.97787 106.951001,59.3702 95.3191,117.529 -7.24469,36.225 -42.9758,70.8592 -102.345,67.0468" />
    </g>
  </svg>
</svg>
